<?xml version="1.0" encoding="UTF-8"?><svg id="b" xmlns="http://www.w3.org/2000/svg" width="86.47" height="86.47" viewBox="0 0 86.47 86.47"><g id="c"><path d="m55.38,43.23l30.22-30.22c1.16-1.16,1.16-3.04,0-4.19l-7.95-7.95c-1.16-1.16-3.04-1.16-4.19,0l-30.22,30.22L13.02.87c-1.16-1.16-3.04-1.16-4.2,0L.87,8.82c-1.16,1.16-1.16,3.04,0,4.2l30.22,30.22L.87,73.45c-1.16,1.16-1.16,3.04,0,4.19l7.95,7.95c1.16,1.16,3.04,1.16,4.2,0l30.22-30.22,30.22,30.22c1.16,1.16,3.04,1.16,4.19,0l7.95-7.95c1.16-1.16,1.16-3.04,0-4.19l-30.22-30.22Z"/></g></svg>